<?xml version="1.0" encoding="utf-8"?>
<!-- Generator: Adobe Illustrator 21.0.0, SVG Export Plug-In . SVG Version: 6.00 Build 0)  -->
<svg version="1.1" id="图层_1" xmlns="http://www.w3.org/2000/svg" xmlns:xlink="http://www.w3.org/1999/xlink" x="0px" y="0px"
	 viewBox="0 0 300 320" style="enable-background:new 0 0 300 320;" xml:space="preserve">
<style type="text/css">
	.st0{fill:#FFFFFF;}
	.st1{opacity:0.8;fill:#00137E;enable-background:new    ;}
	.st2{fill:#00137E;}
</style>
<rect class="st0" width="300" height="320"/>
<path class="st1" d="M72,78.7c-8.7,0-15.6-7.3-15.6-15.8S63.7,47.2,72,47.2s15.6,6.5,15.6,15.4C87.6,71.4,80.8,78.7,72,78.7
	 M228,78.7c-8.7,0-15.6-7.3-15.6-15.7s7.3-15.7,15.6-15.7c8.4,0,15.6,7.3,15.6,15.7S236.7,78.7,228,78.7 M209.3,169.1H92.5
	c-3.3,0-6.1-2.4-7.1-5.8L71.9,94.2c-0.5-2.4,0.5-5.3,2.4-6.7c1.9-1.9,4.2-2.4,6.6-1.4L118.5,98l26.3-46.7c1.4-2.4,3.8-3.8,6.1-3.8
	c2.4,0,4.7,1.4,6.1,3.8L183.3,98L221,86.1c2.4-0.9,5.2,0,6.6,1.4c1.9,1.9,2.8,4.2,2.4,6.7l-13.7,69.2
	C215.9,166.7,213.1,169.1,209.3,169.1 M151,40.9c-8.7,0-15.6-7.3-15.6-15.7c0-8.8,7.3-15.7,15.6-15.7s15.6,7.3,15.6,15.7
	C166.6,34,159.4,40.9,151,40.9"/>
<path class="st2" d="M205.3,190.7H94.7c-3.8,0-7.1-3.3-7.1-7.2c0-3.8,3.3-7.2,7.1-7.2h110.5c3.8,0,7.1,3.3,7.1,7.2
	C212.4,187.4,209.1,190.7,205.3,190.7"/>
</svg>
