<?xml version="1.0" encoding="utf-8"?>
<!-- Generator: Adobe Illustrator 21.0.0, SVG Export Plug-In . SVG Version: 6.00 Build 0)  -->
<svg version="1.1" id="图层_1" xmlns="http://www.w3.org/2000/svg" xmlns:xlink="http://www.w3.org/1999/xlink" x="0px" y="0px"
	 viewBox="0 0 300 320" style="enable-background:new 0 0 300 320;" xml:space="preserve">
<style type="text/css">
	.st0{fill:#FFFFFF;}
	.st1{fill:#E1E1E1;}
	.st2{fill:#CECECE;}
</style>
<rect class="st0" width="300" height="320"/>
<path class="st1" d="M168.2,133.3h-51.6l0,0V88.9h15.7l27.8-27.8h28.7v50.4H211V61.1h27.8c6.1,0,11.1-5,11.1-11.1s-5-11.1-11.1-11.1
	H211V11.1l0,0C211,5,206.1,0,199.9,0c-6.1,0-11.1,5-11.1,11.1v27.8h-37.9l-27.8,27.7H83.3c-6.1,0-11.1,5-11.1,11.1s5,11.1,11.1,11.1
	h11.1v44.4H61.1c-6.1,0-11.1,5-11.1,11.1s5,11.1,11.1,11.1h33.3v33.3c0,6.1,5,11.1,11.1,11.1s11.1-5,11.1-11.1v-33.3h51.6
	L168.2,133.3L168.2,133.3z"/>
<g>
	<path class="st2" d="M199.4,181.5c-20.2,0-36.6-16.4-36.6-36.6s16.4-36.6,36.6-36.6s36.6,16.4,36.6,36.6
		C236,165,219.5,181.5,199.4,181.5z M199.4,129.2c-8.6,0-15.6,7-15.6,15.6s7,15.6,15.6,15.6s15.6-7,15.6-15.6
		C215,136.3,208,129.2,199.4,129.2z"/>
</g>
</svg>
