<?xml version="1.0" encoding="utf-8"?>
<svg version="1.1" xmlns:xlink="http://www.w3.org/1999/xlink" width="203px" height="115px" xmlns="http://www.w3.org/2000/svg">
  <g transform="matrix(1 0 0 1 8 -333 )">
    <path d="M 0 29  L 198 107  L 178.5 110  L 172 73.5  L 167.5 52  L 142 73.5  L 119 93.5  L 76 17.5  L 65 0  L 28 17.5  L 0 29  Z " fill-rule="nonzero" fill="#ffffff" stroke="none" transform="matrix(1 0 0 1 -6 335 )" />
    <path d="M 198 107  L 178.5 110  L 172 73.5  L 167.5 52  L 142 73.5  L 119 93.5  L 76 17.5  L 65 0  L 28 17.5  L 0 29  " stroke-width="4" stroke-dasharray="12,4" stroke="#409eff" fill="none" transform="matrix(1 0 0 1 -6 335 )" />
  </g>
</svg>