<?xml version="1.0" encoding="utf-8"?>
<svg version="1.1" xmlns:xlink="http://www.w3.org/1999/xlink" width="22px" height="31px" xmlns="http://www.w3.org/2000/svg">
  <defs>
    <mask fill="white" id="clip757">
      <path d="M 0 10.7638888888889  C 0 4.73611111111111  4.84 0  11 0  C 17.16 0  22 4.73611111111111  22 10.7638888888889  C 22 16.7916666666667  13.8557692307692 31  11 30.8923611111111  C 7.82692307692308 31.2152777777778  0 16.7916666666667  0 10.7638888888889  Z " fill-rule="evenodd" />
    </mask>
  </defs>
  <g transform="matrix(1 0 0 1 20 -333 )">
    <path d="M 0 10.7638888888889  C 0 4.73611111111111  4.84 0  11 0  C 17.16 0  22 4.73611111111111  22 10.7638888888889  C 22 16.7916666666667  13.8557692307692 31  11 30.8923611111111  C 7.82692307692308 31.2152777777778  0 16.7916666666667  0 10.7638888888889  Z " fill-rule="nonzero" fill="#d93c6c" stroke="none" fill-opacity="0" transform="matrix(1 0 0 1 -20 333 )" />
    <path d="M 0 10.7638888888889  C 0 4.73611111111111  4.84 0  11 0  C 17.16 0  22 4.73611111111111  22 10.7638888888889  C 22 16.7916666666667  13.8557692307692 31  11 30.8923611111111  C 7.82692307692308 31.2152777777778  0 16.7916666666667  0 10.7638888888889  Z " stroke-width="18" stroke="#d93c6c" fill="none" transform="matrix(1 0 0 1 -20 333 )" mask="url(#clip757)" />
  </g>
</svg>