<?xml version="1.0" encoding="utf-8"?>
<svg version="1.1" xmlns:xlink="http://www.w3.org/1999/xlink" width="45px" height="54px" xmlns="http://www.w3.org/2000/svg">
  <g transform="matrix(1 0 0 1 -238 -51 )">
    <path d="M 8.99943037974683 48.1603263157895  C 9.00484177215189 48.1603263157895  12.0753797468354 50.5360421052631  20.575253164557 53.4449368421053  C 21.8226685372878 53.872390436457  23.1773314627122 53.872390436457  24.424746835443 53.4449368421053  C 32.9246202531646 50.5363263157895  35.9951582278481 48.1603263157895  35.9951582278481 48.1603263157895  C 44.8288291139241 42.1487052631579  44.906582278481 34.2550421052632  45 34.2550421052632  L 45 9.34228421052632  C 44.906582278481 8.12103157894737  43.9108860759494 7.07201052631579  42.6870569620253 7.02738947368421  C 36.4178164556962 6.80542105263158  27.1782911392405 2.20916842105263  23.7961708860759 0.410684210526315  C 22.9845769449329 -0.0221763664554544  22.010011662662 -0.0221763664554544  21.198417721519 0.410684210526315  C 17.8162974683544 2.20376842105263  8.58218354430379 6.80542105263158  2.30753164556961 7.02738947368421  C 1.08370253164556 7.07172631578947  0.0880063291139163 8.12103157894737  0 9.34228421052632  L 0 34.2550421052632  C 0.0880063291139163 34.2550421052632  0.165759493670878 42.1484210526316  8.99943037974683 48.1603263157895  Z " fill-rule="nonzero" fill="#ff991f" stroke="none" transform="matrix(1 0 0 1 238 51 )" />
  </g>
</svg>