<?xml version="1.0" encoding="utf-8"?>
<svg version="1.1" xmlns:xlink="http://www.w3.org/1999/xlink" width="38px" height="45px" xmlns="http://www.w3.org/2000/svg">
  <g transform="matrix(1 0 0 1 -242 -55 )">
    <path d="M 7.61986363636365 40.0559810126582  C 7.60863636363638 40.0559810126582  10.200696969697 42.0473734177215  17.3749242424242 44.4782278481013  C 18.4283285152951 44.8342394893656  19.571383605917 44.8342394893656  20.6247878787879 44.4782278481013  C 27.799303030303 42.0473734177215  30.3913636363636 40.0559810126582  30.3913636363636 40.0559810126582  C 37.8468484848485 35.0273734177215  37.9145 28.4189240506329  38 28.4189240506329  L 38 7.84794303797468  C 37.9145 6.82433544303797  37.0710151515152 5.95110759493671  36.0421363636364 5.91208860759494  C 30.7512121212121 5.72838607594937  22.9525757575758 1.87917721518987  20.102 0.377088607594935  C 19.4167977325723 0.0153670176384226  18.594429540155 0.0153670176384236  17.9092272727273 0.377088607594935  C 15.0586515151515 1.87889240506329  7.26001515151516 5.72838607594937  1.96909090909092 5.91208860759494  C 0.940212121212131 5.94541139240506  0.0967272727272825 6.82433544303797  0 7.84794303797468  L 0 28.4189240506329  C 0.0967272727272825 28.4189240506329  0.164090909090919 35.0273734177215  7.61986363636365 40.0559810126582  Z " fill-rule="nonzero" fill="#ffad4c" stroke="none" transform="matrix(1 0 0 1 242 55 )" />
  </g>
</svg>