<?xml version="1.0" encoding="utf-8"?>
<svg version="1.1" xmlns:xlink="http://www.w3.org/1999/xlink" width="20px" height="14px" xmlns="http://www.w3.org/2000/svg">
  <g transform="matrix(1 0 0 1 -251 -69 )">
    <path d="M 8.82816901408451 13.31204  C 8.52252427633661 13.6217715225134  8.10379823737985 13.7953874702448  7.66732394366197 13.79336  C 7.2322387878759 13.793982393771  6.81470450522544 13.6228747981034  6.50647887323944 13.31764  L 0.712957746478871 7.55356  C 0.0692957746478859 6.91376  0.0692957746478859 5.88  0.712957746478871 5.2458  C 1.35661971830986 4.606  2.39661971830986 4.606  3.03464788732394 5.2458  L 7.66704225352113 9.8504  L 17.030985915493 0.542640000000005  C 17.6746478873239 -0.0971599999999984  18.7146478873239 -0.0971599999999984  19.352676056338 0.542640000000005  C 19.996338028169 1.18244  19.996338028169 2.2162  19.352676056338 2.8504  L 8.82816901408451 13.31204  Z " fill-rule="nonzero" fill="#ffffff" stroke="none" transform="matrix(1 0 0 1 251 69 )" />
  </g>
</svg>