<?xml version="1.0" encoding="utf-8"?>
<svg version="1.1" xmlns:xlink="http://www.w3.org/1999/xlink" width="19px" height="19px" xmlns="http://www.w3.org/2000/svg">
  <g transform="matrix(1 0 0 1 -302 -192 )">
    <path d="M 18.666142851709 9.37378572243652  C 18.6661428326904 14.4929285931641  14.5485714258545 18.7217857224365  9.37378572243652 18.7217857224365  C 4.25464285170898 18.7217857224365  0.0814285741455078 14.5485714258545  0.0814285741455078 9.37378572243652  C 0.0814285741455078 4.19900001901856  4.25464285170898 0.0814285741455078  9.37378572243652 0.0814285741455078  C 14.4929285931641 0.0814285741455078  18.6661428707275 4.25464285170898  18.666142851709 9.37378572243652  Z M 17.775857148291 9.37378572243652  C 17.775857148291 4.75542859316406  14.0477857224365 0.971714277563477  9.37378572243652 0.971714277563477  C 4.75542857414551 0.971714277563477  0.971714277563477 4.75542857414551  0.971714277563477 9.37378572243652  C 0.971714277563477 13.9921428707275  4.75542855512695 17.775857148291  9.37378572243652 17.775857148291  C 13.9921428897461 17.775857148291  17.775857148291 13.992142851709  17.775857148291 9.37378572243652  Z " fill-rule="nonzero" fill="#696b6f" stroke="none" transform="matrix(1 0 0 1 302 192 )" />
  </g>
</svg>