<?xml version="1.0" encoding="utf-8"?>
<svg version="1.1" xmlns:xlink="http://www.w3.org/1999/xlink" width="9px" height="9px" xmlns="http://www.w3.org/2000/svg">
  <g transform="matrix(1 0 0 1 -307 -197 )">
    <path d="M 8.5448571402832 7.8068571402832  L 5.06571428056641 4.38042857915039  L 8.49214285971679 0.954000000000001  C 8.65028571943359 0.795857140283204  8.65028571943359 0.47957142084961  8.49214285971679 0.321428579150392  L 8.43942857915039 0.321428579150392  C 8.28128571943359 0.163285719433595  7.965 0.163285719433595  7.8068571402832 0.321428579150392  L 4.38042857915039 3.7478571402832  L 1.00671428056641 0.321428579150392  C 0.795857140283204 0.163285719433595  0.532285701416016 0.163285719433595  0.374142859716798 0.321428579150392  L 0.321428579150391 0.374142859716799  C 0.163285719433594 0.532285719433596  0.163285719433594 0.84857143886719  0.321428579150391 1.00671428056641  L 3.7478571402832 4.38042857915039  L 0.321428579150391 7.8068571402832  C 0.163285719433594 7.965  0.163285719433594 8.28128571943359  0.321428579150391 8.43942857915039  L 0.374142859716798 8.49214285971679  C 0.532285719433595 8.65028571943359  0.848571438867189 8.65028571943359  1.00671428056641 8.49214285971679  L 4.4331428597168 5.06571428056641  L 7.85957142084961 8.49214285971679  C 8.01771428056641 8.65028571943359  8.334 8.65028571943359  8.49214285971679 8.49214285971679  L 8.5448571402832 8.43942857915039  C 8.703 8.28128571943359  8.703 7.965  8.5448571402832 7.8068571402832  Z " fill-rule="nonzero" fill="#696b6f" stroke="none" transform="matrix(1 0 0 1 307 197 )" />
  </g>
</svg>