<?xml version="1.0" encoding="utf-8"?>
<svg version="1.1" xmlns:xlink="http://www.w3.org/1999/xlink" width="16px" height="11px" xmlns="http://www.w3.org/2000/svg">
  <g transform="matrix(1 0 0 1 -52 -135 )">
    <path d="M 8.94117647058824 4.75178328804348  C 12.8244485294118 4.75178328804348  15.9816176470588 4.57430366847826  15.9816176470588 4.34077785326087  L 15.9816176470588 3.99983016304348  C 15.9816176470588 1.88875679347826  14.1847426470588 0.179347826086957  11.9604779411765 0.179347826086957  L 5.95404411764706 0.179347826086957  C 3.72977941176471 0.179347826086957  1.93290441176471 1.89342730978261  1.93290441176471 3.99983016304348  L 1.93290441176471 4.34077785326087  C 1.93290441176471 4.56029211956522  5.05790441176471 4.75178328804348  8.94117647058824 4.75178328804348  Z M 4.05147058823529 10.2162873641304  C 3.41268382352942 9.05332880434783  2.17647058823529 8.24532948369565  0.742647058823529 8.11922554347826  C 0.696691176470588 8.09120244565217  0.636948529411765 8.07719089673913  0.577205882352941 8.07719089673913  C 0.333639705882353 8.07719089673913  0.136029411764704 8.25467051630435  0.136029411764704 8.48819633152174  L 0.136029411764704 10.1602411684783  C 0.136029411764704 10.627292798913  0.53125 10.9962635869565  1.01838235294118 10.9962635869565  L 3.70220588235294 10.9962635869565  C 3.93198529411765 10.9822520380435  4.09742647058824 10.8047724184783  4.09742647058824 10.5852581521739  C 4.09742647058824 10.4638247282609  4.12959558823529 10.3517323369565  4.05147058823529 10.2162873641304  Z " fill-rule="nonzero" fill="#48ba63" stroke="none" transform="matrix(1 0 0 1 52 135 )" />
  </g>
</svg>