<?xml version="1.0" encoding="utf-8"?>
<svg version="1.1" xmlns:xlink="http://www.w3.org/1999/xlink" width="36px" height="36px" xmlns="http://www.w3.org/2000/svg">
  <g transform="matrix(1 0 0 1 -43 -123 )">
    <path d="M 35.9612379807692 18  C 35.9612379807692 8.07962740384615  27.9203725961538 0.0387620192307692  18 0.0387620192307692  C 8.07962740384615 0.0387620192307692  0.0387620192307692 8.07962740384615  0.0387620192307692 18  C 0.0387620192307692 27.9203725961538  8.07962740384615 35.9612379807692  18 35.9612379807692  C 27.9203725961538 35.9612379807692  35.9612379807692 27.9203725961538  35.9612379807692 18  Z M 30.2370793269231 21.8581730769231  L 30.2325721153846 21.8581730769231  C 30.2325721153846 23.4942908653846  29.4393028846154 25.0492788461538  28.1051682692308 26.0228365384615  L 25.7794471153846 27.7130408653846  C 25.6352163461538 27.8167067307692  25.4729567307692 27.8707932692308  25.2926682692308 27.8707932692308  C 25.1168870192308 27.8707932692308  24.9456129807692 27.8167067307692  24.8058894230769 27.7130408653846  L 22.4801682692308 26.0228365384615  C 21.8671875 25.5766225961538  21.3713942307692 25.0087139423077  21.0108173076923 24.3641826923077  C 20.0823317307692 24.4002403846154  19.0682091346154 24.4227764423077  18.0045072115385 24.4227764423077  C 15.5841346153846 24.4227764423077  13.4161658653846 24.3191105769231  11.9197716346154 24.1568509615385  C 11.6944110576923 24.3010817307692  11.5456730769231 24.5264423076923  11.4555288461538 24.8329326923077  C 11.2752403846154 25.2971754807692  10.8109975961538 25.6397235576923  10.2430889423077 25.6397235576923  L 8.52584134615384 25.6397235576923  C 7.80919471153846 25.6397235576923  7.22325721153846 25.0988581730769  7.22325721153846 24.4362980769231  L 7.22325721153846 19.2079326923077  C 7.22325721153846 17.8873197115385  7.89483173076923 16.7244591346154  8.9405048076923 15.9942908653846  C 8.9405048076923 12.8888221153846  11.6448317307692 10.3647836538461  14.9801682692308 10.3647836538461  L 21.0198317307692 10.3647836538461  C 24.3551682692308 10.3647836538461  27.0594951923077 12.8753004807692  27.0594951923077 15.9942908653846  C 27.7355769230769 16.4675480769231  28.2629206730769 17.12109375  28.546875 17.8828125  L 29.6646634615385 18.2433894230769  C 30.0027043269231 18.3515625  30.2370793269231 18.6670673076923  30.2370793269231 19.0231370192308  L 30.2370793269231 21.8581730769231  Z " fill-rule="nonzero" fill="#48ba63" stroke="none" transform="matrix(1 0 0 1 43 123 )" />
  </g>
</svg>