<?xml version="1.0" encoding="utf-8"?>
<svg version="1.1" xmlns:xlink="http://www.w3.org/1999/xlink" width="8px" height="9px" xmlns="http://www.w3.org/2000/svg">
  <g transform="matrix(1 0 0 1 -65 -141 )">
    <path d="M 7.96874999999999 1.87345805921053  C 7.97348484848485 1.59128289473684  7.7935606060606 1.35074013157895  7.51893939393939 1.26284950657894  L 4.29450757575758 0.249794407894737  C 4.11931818181818 0.194284539473681  3.92518939393939 0.194284539473681  3.75 0.249794407894737  L 0.525568181818182 1.26284950657894  C 0.255681818181815 1.35074013157894  0.0710227272727238 1.59128289473684  0.0710227272727238 1.87345805921053  L 0.0710227272727238 4.08922697368421  C 0.0710227272727238 5.36595394736842  0.705492424242421 6.58254523026315  1.77083333333333 7.34118009868421  L 3.63162878787878 8.65953947368421  C 3.74526515151514 8.74280427631578  3.88257575757575 8.78443667763158  4.01988636363636 8.78443667763158  C 4.16666666666667 8.78443667763158  4.29450757575757 8.74280427631579  4.40814393939394 8.65953947368421  L 6.26893939393939 7.34118009868421  C 7.3342803030303 6.58254523026315  7.96874999999999 5.36595394736842  7.96874999999999 4.08922697368421  L 7.96874999999999 1.87345805921053  Z " fill-rule="nonzero" fill="#48ba63" stroke="none" transform="matrix(1 0 0 1 65 141 )" />
  </g>
</svg>