<?xml version="1.0" encoding="utf-8"?>
<svg version="1.1" xmlns:xlink="http://www.w3.org/1999/xlink" width="36px" height="36px" xmlns="http://www.w3.org/2000/svg">
  <g transform="matrix(1 0 0 1 -43 -219 )">
    <path d="M 36 18  C 36 8.05887450304572  27.9411254969543 0  18 0  C 8.05887450304572 0  0 8.05887450304572  0 18  C 0 27.9411254969543  8.05887450304572 36  18 36  C 27.9411254969543 36  36 27.9411254969543  36 18  Z M 25.64469140625 15.85698046875  L 25.62352734375 15.8569453125  L 14.544 26.9152734375  C 14.4217608032986 27.0379171872932  14.2555204339888 27.106535175387  14.08236328125 27.1058203125  C 13.9579795737471 27.1055012106704  13.8361789850191 27.070300840528  13.73080078125 27.00421875  C 13.4725907794665 26.841232118802  13.3631991764026 26.5201020761216  13.46821875 26.2333828125  L 15.76378125 19.9524375  L 10.8169453125 19.9524375  C 10.5487759477506 19.9473796134432  10.3106548350824 19.7796912376723  10.21552734375 19.52891015625  C 10.1145481531123 19.2865923857178  10.1697447469317 19.0072915127168  10.35530859375 18.8216015625  L 20.15152734375 9.0805078125  C 20.2752241223794 8.94290614730349  20.4515439737894 8.86431848663873  20.6365712996311 8.86431848663873  C 20.9967817688098 8.86431848663873  21.2887900496311 9.15632676746003  21.2887900496311 9.51653723663873  C 21.2887900496311 9.70051541682009  21.2110879372084 9.87593659916081  21.0748359375 9.9995625  L 12.39247265625 18.63534375  L 16.69552734375 18.63534375  C 17.0559436936243 18.6353437175056  17.3479519744456 18.9273519983269  17.3479519744456 19.2875624675056  C 17.3479519744456 19.3626384619576  17.3349898437302 19.4371508276655  17.30963671875 19.50781640625  L 15.70021875 23.90403515625  L 23.6075625 16.0475625  L 19.3044375 16.0475625  C 19.2870019316874 16.0489681810365  19.269516871237 16.049671875  19.2520247306716 16.049671875  C 18.8918142614929 16.049671875  18.5998059806716 15.7576635941787  18.5998059806716 15.397453125  C 18.5998059806716 15.0372426558213  18.8918142614929 14.745234375  19.2520247306716 14.745234375  C 19.269516871237 14.745234375  19.2870019316874 14.7459380689635  19.3044375 14.74734375  L 25.1830546875 14.74734375  C 25.5419790978495 14.7491505655259  25.831990228003 15.0406252782093  25.831990228003 15.3995542362596  C 25.831990228003 15.5706979566279  25.7647211159486 15.7349843958166  25.64469140625 15.85698046875  Z " fill-rule="nonzero" fill="#ff7e00" stroke="none" transform="matrix(1 0 0 1 43 219 )" />
  </g>
</svg>