<?xml version="1.0" encoding="utf-8"?>
<svg version="1.1" xmlns:xlink="http://www.w3.org/1999/xlink" width="36px" height="36px" xmlns="http://www.w3.org/2000/svg">
  <g transform="matrix(1 0 0 1 -43 -313 )">
    <path d="M 35.9795454545455 18  C 35.9795454545455 8.07954545454546  27.9204545454545 0.0204545454545454  18 0.0204545454545454  C 8.07954545454546 0.0204545454545454  0.0204545454545454 8.05909090909091  0.0204545454545454 18  C 0.0204545454545454 27.9409090909091  8.07954545454546 35.9795454545455  18 35.9795454545455  C 27.9204545454545 35.9795454545455  35.9795454545455 27.9204545454545  35.9795454545455 18  Z M 16.7318181818182 19.1045454545454  L 16.7318181818182 21.6409090909091  L 14.7477272727273 21.6409090909091  L 14.7477272727273 25.9772727272727  L 11.6386363636364 25.9772727272727  L 11.6386363636364 21.6409090909091  L 4.52045454545455 21.6409090909091  L 4.52045454545455 19.3704545454545  L 10.7590909090909 9.24545454545454  L 14.7477272727273 9.24545454545454  L 14.7477272727273 19.1045454545454  L 16.7318181818182 19.1045454545454  Z M 30.5590909090909 21.2318181818182  C 30.5795454545455 23.9727272727273  28.2886363636364 26.3045454545454  24.4227272727273 26.3045454545455  C 22.1931818181818 26.3045454545455  19.9431818181818 25.425  18.3272727272727 23.8704545454545  L 20.25 21.5590909090909  C 21.4568181818182 22.6636363636364  23.0318181818182 23.4204545454545  24.5045454545455 23.4204545454545  C 26.2431818181818 23.4204545454545  27.1636363636364 22.6840909090909  27.1636363636364 21.4977272727273  C 27.1636363636364 20.25  26.1409090909091 19.8613636363636  24.6477272727273 19.2272727272727  L 22.4181818181818 18.2863636363636  C 20.7204545454545 17.5909090909091  19.0227272727273 16.2204545454545  19.0227272727273 13.7863636363636  C 19.0227272727273 11.0454545454545  21.4159090909091 8.93863636363636  24.8113636363636 8.93863636363636  C 26.7545454545455 8.93863636363636  28.6977272727273 9.71590909090909  30.0477272727273 11.0863636363636  L 28.35 13.1931818181818  C 27.2863636363636 12.3136363636364  26.1818181818182 11.8227272727273  24.7909090909091 11.8227272727273  C 23.3181818181818 11.8227272727273  22.3772727272727 12.4772727272727  22.3772727272727 13.5818181818182  C 22.3772727272727 14.7886363636364  23.5840909090909 15.2181818181818  24.9954545454545 15.7704545454545  L 27.1840909090909 16.6909090909091  C 29.2090909090909 17.5295454545454  30.5590909090909 18.8181818181818  30.5590909090909 21.2318181818182  Z " fill-rule="nonzero" fill="#f26161" stroke="none" transform="matrix(1 0 0 1 43 313 )" />
  </g>
</svg>