<?xml version="1.0" encoding="utf-8"?>
<svg version="1.1" xmlns:xlink="http://www.w3.org/1999/xlink" width="36px" height="36px" xmlns="http://www.w3.org/2000/svg">
  <g transform="matrix(1 0 0 1 -35 -409 )">
    <path d="M 36 18.0002115351563  C 36 8.0588491171875  27.9411508828125 0  18.0002115351563 0  C 8.0588491171875 0  0 8.0588491171875  0 18.0002115351563  C 0 27.9411509179688  8.0588491171875 36  18.0002115351563 36  C 27.9411509179688 36  36 27.9411508828125  36 18.0002115351563  Z M 6.9640300546875 16.3867496132813  C 6.96445316015625 16.3854804375  6.9597997734375 16.3630595039062  6.9597997734375 16.3507914140625  C 6.95218510546875 16.293258421875  6.9597997734375 16.0140541992188  6.9758751796875 15.936638484375  C 7.03044692578125 15.028801734375  7.2034689375 14.1442319882813  7.48267316015625 13.3019659335938  C 8.65956125390625 9.74465033203125  11.7206547890625 6.9445704375  15.6743557734375 6.288017484375  C 19.735931109375 5.61412001953125  23.6342142773437 7.3879128984375  25.8725014453125 10.528537359375  L 25.8623485664063 9.98747342578125  C 25.8589642851563 9.825027328125  25.9896826054687 9.69050165625  26.152128703125 9.687117375  L 27.8637351679687 9.656235703125  C 28.026181265625 9.65327445703125  28.1611299726562 9.782723671875  28.1636681835937 9.94601583984375  C 28.1636681835937 9.94601583984375  28.1395550742188 12.26467996875  28.068484921875 13.6192434960938  C 28.0384493203125 14.1759598007812  27.9326901445312 14.5714991132813  27.9326901445312 14.5714991132813  C 27.7634754492187 15.1798258828125  27.3755508046875 15.5021798671875  26.5768575117187 15.3904981640625  C 26.1885098320312 15.3359264179688  21.56979515625 13.8929482617188  21.56979515625 13.8929482617188  C 21.4149637265625 13.8434529726563  21.32993334375 13.6767765234375  21.3794286328125 13.52194509375  L 21.9010328789062 11.8915616601563  C 21.9505281679687 11.7363071953125  22.116358546875 11.6512768125  22.2711899765625 11.7007721015625  L 24.0822100898437 12.2799093398438  C 22.4162915625 9.68288705859375  19.3141634765625 8.1849140859375  16.07793271875 8.72174766796875  C 12.7799386171875 9.2691571640625  10.295867109375 11.77141921875  9.61139373046875 14.8456269140625  C 9.5297476640625 15.2107075898438  9.46756125 16.1291202539063  9.46629214453124 16.2154197421875  C 9.45571623046875 16.9104690351563  8.88334758984375 17.4654931992188  8.1878752265625 17.4553403203125  C 7.56431912109375 17.4451874414063  7.05455989453125 16.9836543984375  6.9640300546875 16.3867496132813  Z M 29.0427384375 20.6949552539062  C 29.0427384726563 20.7533343515625  29.0080494492187 21.0304233984375  28.9843594101562 21.1057239375  C 28.2233163867188 25.798893046875  24.3076887070313 29.5156935  19.361543625 29.8325479570313  C 15.252165140625 30.0956767734375  11.55144009375 27.9390357070312  9.640160296875 24.5890080703125  L 9.5957414296875 25.1288028984375  C 9.5826273046875 25.2912489960937  9.4400639296875 25.4118144375  9.2780408671875 25.3991233476563  L 7.57151082421875 25.2582521132813  C 7.40948776171875 25.2451379882812  7.2889223203125 25.1025746132812  7.3020364453125 24.9397054804687  C 7.3020364453125 24.9397054804687  7.55839669921875 22.6354245820312  7.76610769921875 21.2956673554687  C 7.85113808203125 20.7436044726563  7.99623966796875 20.3611792851562  7.99623966796875 20.3611792851562  C 8.2259486015625 19.7727352382812  8.64475491796875 19.4909928046875  9.42779583984375 19.6826284335937  C 9.8085288515625 19.7756965195312  14.2588749375 21.675131296875  14.2588749375 21.675131296875  C 14.4086299453125 21.7394328867187  14.4767388515625 21.9137240039062  14.4115911914063 22.0630559414063  L 13.7292329882813 23.6325221015625  C 13.6645083632813 23.782277109375  13.4902172460937 23.8512320859375  13.34130834375 23.7860844257812  L 11.5983971367187 23.0284256835937  C 12.99441825 25.7785872539062  15.9307159570312 27.5803005585937  19.204596984375 27.3708973828125  C 22.5402413554687 27.157686890625  25.2633285703125 24.9177075820313  26.2523883867187 21.9276841992187  C 26.3699925820312 21.5723333671875  26.5244009765625 20.6644966171875  26.5337077851562 20.5790431992187  C 26.6140847460937 19.8878012226562  27.2397560273437 19.3932713320312  27.9309980039062 19.4744943632812  C 28.5503237226562 19.5459875507812  29.0110106953125 20.0570158828125  29.0414693320312 20.660689265625  C 29.0414693320312 20.660689265625  29.044430578125 20.6831101992187  29.0427384375 20.6949552539062  Z " fill-rule="nonzero" fill="#48ba63" stroke="none" transform="matrix(1 0 0 1 35 409 )" />
  </g>
</svg>