<?xml version="1.0" encoding="utf-8"?>
<svg version="1.1" xmlns:xlink="http://www.w3.org/1999/xlink" width="21px" height="26px" xmlns="http://www.w3.org/2000/svg">
  <g transform="matrix(1 0 0 1 -20 -48 )">
    <path d="M 20.9578313170651 22.2733333417969  C 20.9578313170651 21.84  20.9578313170651 21.4933333417969  20.7891566347421 21.1466666582031  L 18.8493975903614 17.5933333417969  L 18.8493975903614 11.96  C 18.8493975903614 8.32  16.656626497788 5.2  13.5361445783133 3.9  C 13.5361445783133 3.72666665820312  13.6204819194748 3.46666665820312  13.6204819194748 3.29333334179687  C 13.6204819194748 1.47333334179688  12.1867469961879 0  10.5 0  C 8.81325300381212 0  7.37951808052523 1.47333334179688  7.37951808052523 3.20666665820313  C 7.37951808052523 3.38  7.37951808052523 3.64  7.46385542168675 3.81333334179687  C 4.34337350221197 5.11333334179687  2.15060240963855 8.23333334179688  2.15060240963855 11.8733333417969  L 2.15060240963855 17.5066666582031  L 0.210843365257907 21.06  C 0.0421686582266572 21.4066666582031  0.0421686582266572 21.84  0.210843365257907 22.1  C 0.379518072289157 22.5333333417969  0.716867461643449 22.7066666582031  1.13855421686747 22.7933333417969  L 5.77710842549887 22.7933333417969  C 6.62048191123871 24.7  8.3915662485881 26  10.5843373411615 26  C 12.7771084337349 26  14.5481927710843 24.7  15.3915662568242 22.7933333417969  L 20.0301204901638 22.7933333417969  C 20.3674698795181 22.7933333417969  20.7048192935806 22.62  20.9578313170651 22.2733333417969  Z M 9.48795180722892 3.20666665820313  C 9.48795180722892 3.29333331640625  9.48795180722892 3.29333331640625  9.48795180722892 3.20666665820313  C 9.48795180722892 2.6  9.99397590361446 2.16666665820313  10.5 2.16666665820313  C 11.0903614375471 2.16666665820313  11.5120481927711 2.68666665820313  11.5120481927711 3.20666665820313  L 11.5120481927711 3.29333334179688  C 11.1746988034168 3.20666668359375  10.8373493893543 3.20666668359375  10.5 3.20666665820313  C 10.1626506106457 3.29333331640625  9.82530119658321 3.29333331640625  9.48795180722892 3.20666665820313  Z M 12.8614457748965 22.7066666582031  C 12.2710843373494 23.4  11.4277108269014 23.8333333164063  10.5 23.8333333417969  C 9.57228914839044 23.8333333417969  8.7289156626506 23.4  8.22289156626506 22.7066666582031  L 12.8614457748965 22.7066666582031  Z M 2.90963855421687 20.7133333417969  L 2.90963855421687 20.6266666582031  L 4.0903614540192 18.46  C 4.17469879518072 18.2866666582031  4.25903616105045 18.1133333417969  4.25903613634224 17.8533333417969  L 4.25903613634224 12.0466666582031  C 4.25903613634224 8.49333331640625  7.04216866646273 5.54666665820312  10.5 5.54666665820312  C 13.9578313335373 5.54666665820312  16.7409638636578 8.49333331640625  16.7409638636578 12.0466666582031  L 16.7409638636578 17.94  C 16.7409638636578 18.1133333417969  16.7409638636578 18.3733333417969  16.9096385459808 18.5466666582031  L 18.0903614457831 20.7133333417969  L 2.90963855421687 20.7133333417969  Z " fill-rule="nonzero" fill="#ffffff" stroke="none" transform="matrix(1 0 0 1 20 48 )" />
  </g>
</svg>