<?xml version="1.0" encoding="utf-8"?>
<svg version="1.1" xmlns:xlink="http://www.w3.org/1999/xlink" width="33px" height="42px" xmlns="http://www.w3.org/2000/svg">
  <defs>
    <filter x="234px" y="329px" width="33px" height="42px" filterUnits="userSpaceOnUse" id="filter765">
      <feOffset dx="0" dy="0" in="SourceAlpha" result="shadowOffsetInner" />
      <feGaussianBlur stdDeviation="2.5" in="shadowOffsetInner" result="shadowGaussian" />
      <feComposite in2="shadowGaussian" operator="atop" in="SourceAlpha" result="shadowComposite" />
      <feColorMatrix type="matrix" values="0 0 0 0 0.811764705882353  0 0 0 0 0.933333333333333  0 0 0 0 1  0 0 0 1 0  " in="shadowComposite" />
    </filter>
    <g id="widget766">
      <path d="M 16.9406896551724 10.304  C 18.7595931034483 11.328  20.208275862069 12.736  21.2868965517241 14.528  C 22.3655172413793 16.32  22.9048275862069 18.304  22.9048275862069 20.48  C 22.9048275862069 22.57072  22.3866137931035 24.49072  21.3503448275862 26.24  C 20.314075862069 27.98928  18.9182137931035 29.38672  17.1627586206897 30.432  C 15.4073034482759 31.47728  13.4933862068966 32  11.4206896551724 32  C 9.34799310344827 32  7.44454482758621 31.47728  5.71034482758621 30.432  C 3.97614482758621 29.38672  2.59075172413793 27.98928  1.55448275862069 26.24  C 0.518213793103448 24.49072  0 22.57072  0 20.48  L 6.15448275862069 20.48  C 6.15448275862069 21.93072  6.67269655172414 23.17872  7.70896551724138 24.224  C 8.74523448275862 25.26928  9.98247586206896 25.792  11.4206896551724 25.792  C 12.9010965517241 25.792  14.1595931034483 25.26928  15.1958620689655 24.224  C 16.2321310344828 23.17872  16.7503448275862 21.93072  16.7503448275862 20.48  C 16.7503448275862 19.2  16.3273034482759 18.05872  15.4813793103448 17.056  C 14.6354551724138 16.05328  13.5779310344828 15.44528  12.3089655172414 15.232  L 6.66206896551724 15.232  L 6.66206896551724 12.352  L 12.2455172413793 6.272  L 2.60137931034483 6.272  L 2.60137931034483 0  L 20.8744827586207 0  L 20.8744827586207 6.016  L 16.9406896551724 10.304  Z " fill-rule="nonzero" fill="#ffffff" stroke="none" transform="matrix(1 0 0 1 239 334 )" />
    </g>
  </defs>
  <g transform="matrix(1 0 0 1 -234 -329 )">
    <use xlink:href="#widget766" filter="url(#filter765)" />
    <use xlink:href="#widget766" />
  </g>
</svg>