<?xml version="1.0" encoding="utf-8"?>
<svg version="1.1" xmlns:xlink="http://www.w3.org/1999/xlink" width="385px" height="80px" xmlns="http://www.w3.org/2000/svg">
  <g transform="matrix(1 0 0 1 -711 -797 )">
    <path d="M 384.999999997785 1  L 380 1.00001890873273  L 380 16.320797413793  L 380.733333333333 16.320797413793  C 380.733333333333 16.320797413793  380.733333333333 19.9089978448276  380.687943262411 21.7258081896553  C 380.642553191489 25.6319504310345  380.370212765957 29.5380926724139  379.689361702128 33.3988146551725  C 378.963120567376 37.3049568965517  377.873758865248 40.8931573275862  376.012765957447 44.4813577586208  C 374.242553191489 47.9787176724139  371.927659574468 51.1581357758622  369.158865248227 53.9287715517243  C 366.390070921986 56.6994073275863  363.212765957447 59.0158405172415  359.717730496454 60.7872306034483  C 355.224113475177 63.0582435344827  351.411347517731 63.921228448276  348.687943262411 64.4662715517242  C 344.285106382979 65.3746767241379  340.336170212766 65.5563577586207  337.068085106383 65.4655172413793  C 240.977304964539 65.4655172413793  144.931914893617 65.4200969827587  48.8411347517732 65.4200969827587  C 45.5730496453901 65.5109375000001  41.6241134751774 65.3292564655172  37.2212765957448 64.4208512931035  C 34.4978723404257 63.8758081896551  30.7304964539009 63.0128232758622  26.1914893617022 60.7418103448276  C 22.6964539007093 58.9704202586207  19.5191489361704 56.6539870689655  16.7503546099292 53.8833512931036  C 13.9815602836881 51.1127155172416  11.6666666666669 47.8878771551725  9.89645390070939 44.4359375000001  C 8.08085106382998 40.8931573275864  6.94609929078035 37.2595366379311  6.21985815602852 33.3533943965518  C 5.49361702127669 29.4926724137932  5.26666666666677 25.586530172414  5.22127659574483 21.6803879310345  C 5.17588652482277 19.9089978448276  5.17588652482277 16.2753771551725  6 16.2753771551725  L 6 1  L 1 0.998475264054832  L 1 34.8068426724138  C 1 59.6517241379311  21.1078014184397 79.7728987068966  45.936170212766 79  L 340.063829787234 79  C 364.89219858156 79.7728987068966  385 59.6517241379311  385 34.8068426724138  L 384.999999997785 1  Z " fill-rule="nonzero" fill="#fdfdfd" stroke="none" transform="matrix(1 0 0 1 711 797 )" />
  </g>
</svg>