<?xml version="1.0" encoding="utf-8"?>
<!-- Generator: Adobe Illustrator 21.0.0, SVG Export Plug-In . SVG Version: 6.00 Build 0)  -->
<svg version="1.1" id="图层_1" xmlns="http://www.w3.org/2000/svg" xmlns:xlink="http://www.w3.org/1999/xlink" x="0px" y="0px"
	 viewBox="0 0 300 320" style="enable-background:new 0 0 300 320;" xml:space="preserve">
<style type="text/css">
	.st0{fill:#FFFFFF;}
	.st1{fill:#00137E;}
	.st2{opacity:0.8;fill:#00137E;enable-background:new    ;}
</style>
<rect class="st0" width="300" height="320"/>
<path class="st1" d="M237.3,160.2c0,2.4-0.4,4.6-1.2,6.7c-0.8,2.1-2,3.9-3.6,5.5c-1.5,1.6-3.3,2.8-5.4,3.7c-2,0.9-4.3,1.3-6.7,1.3
	H80.8c-2.4,0-4.7-0.4-6.9-1.3c-2.2-0.9-4.1-2.1-5.8-3.7c-1.7-1.6-3-3.4-3.9-5.5c-1-2.1-1.4-4.3-1.4-6.7V66c0-4.8,1.7-8.8,5.1-12.2
	c3.4-3.3,7.5-5,12.4-5h139.5c4.9,0,9,1.7,12.4,5s5.1,7.4,5.1,12.2v25.7h-43.6c-4.9,0-9,1.6-12.4,4.9s-5.1,7.3-5.1,12.1
	c0.1,3.3,0.8,6.2,2.1,8.7c1,2.1,2.7,4.1,5.1,5.9c2.4,1.8,5.8,2.6,10.3,2.6h43.6L237.3,160.2L237.3,160.2L237.3,160.2z M185,108.7
	c0-2.4,0.8-4.4,2.5-6s3.7-2.5,6.2-2.5c2.4,0,4.5,0.8,6.1,2.5c1.7,1.6,2.5,3.6,2.5,6s-0.8,4.4-2.5,6.1s-3.7,2.6-6.1,2.6
	c-2.4,0-4.5-0.9-6.2-2.6S185,111.1,185,108.7z"/>
<path class="st2" d="M198.6,41.1h-87.3c6.9-3.5,13.5-6.9,19.6-10.2c5.3-2.7,10.6-5.5,16-8.3c5.3-2.8,9.4-4.9,12.3-6.4
	c4.5-2.4,8.5-3.5,12-3.3s6.5,0.8,8.9,1.8c2.8,1.4,5.3,3.2,7.3,5.5L198.6,41.1L198.6,41.1z"/>
</svg>
