<?xml version="1.0" encoding="utf-8"?>
<svg version="1.1" xmlns:xlink="http://www.w3.org/1999/xlink" width="386px" height="52px" xmlns="http://www.w3.org/2000/svg">
  <g transform="matrix(1 0 0 1 -709 -37 )">
    <path d="M 1 51  L 6.68336417706564 51.0001204712453  C 6.82019667479904 49.6202805979358  6.99429105750414 48.2441322500816  7.21985815602852 46.8737068965517  C 7.94609929078035 42.9675646551724  9.03546099290793 39.379364224138  10.8964539007094 35.7911637931035  C 12.6666666666669 32.2938038793104  14.9815602836881 29.1143857758621  17.7503546099292 26.34375  C 20.5191489361704 23.573114224138  23.6964539007095 21.2566810344828  27.1914893617022 19.4852909482759  C 30.7319148936172 17.6684806034483  34.317730496454 16.532974137931  38.2212765957448 15.80625  C 42.0794326241136 15.079525862069  45.9375886524824 14.8524245689655  49.8411347517732 14.8070043103448  C 66.2723404255321 14.2619612068966  84.9730496453902 14.7615840517242  83.2028368794328 14.7615840517242  C 88.0595744680853 14.7615840517242  89.5120567375888 18.0772629310345  89.6482269503548 21.5292025862069  C 89.7390070921988 24.1635775862069  90.1021276595746 26.8887931034483  90.8283687943264 29.4323275862069  C 93.1886524822697 37.9713362068966  100.451063829787 43.7851293103448  109.392907801419 44.5572737068966  C 111.617021276596 44.7389547413793  115.974468085107 44.9206357758621  115.974468085107 45  L 271.980141843972 45  C 271.980141843972 44.9206357758621  276.337588652482 44.8752155172414  278.56170212766 44.6935344827586  C 287.503546099291 43.9213900862069  294.765957446809 38.1075969827586  297.126241134752 29.568588362069  C 297.852482269504 27.0250538793104  298.170212765958 24.299838362069  298.306382978724 21.665463362069  C 298.44255319149 18.2589439655172  299.849645390071 14.8978448275862  304.751773049646 14.8978448275862  C 302.981560283688 14.8978448275862  321.727659574468 14.3982219827586  338.113475177305 14.9432650862069  C 342.017021276596 14.9886853448276  345.920567375887 15.2612068965517  349.733333333334 15.9425107758621  C 353.636879432624 16.6692349137931  357.222695035461 17.7593211206897  360.763120567376 19.6215517241379  C 364.258156028369 21.3929418103448  367.435460992908 23.709375  370.204255319149 26.4800107758621  C 372.97304964539 29.2506465517241  375.287943262412 32.4754849137931  377.058156028369 35.9274245689655  C 378.873758865248 39.4702047413793  380.008510638298 43.1038254310345  380.73475177305 47.0099676724138  C 380.952885567556 48.3352322363034  381.128231660053 49.665848820061  381.267943548925 51  L 386 50.9992291832773  L 386 31  C 386 10.3175107758621  370.25 0.227101293103445  348.625 1  L 36.5 1  C 18.875 0.352101293103445  0.25 9.92500000000001  1 31  L 1 51  Z " fill-rule="nonzero" fill="#fdfdfd" stroke="none" transform="matrix(1 0 0 1 709 37 )" />
  </g>
</svg>